<svg width="40" height="40" viewBox="0 0 40 40" fill="none" xmlns="http://www.w3.org/2000/svg">
<path fill-rule="evenodd" clip-rule="evenodd" d="M11.4651 31.2333H9.58239V34.1829H7.69971V36.0656H19.9999H32.3001V34.1829H30.4174V31.2333H28.5347V34.1829H20.9413V31.2333H19.9999H19.3724H19.0586V34.1829H11.4651V31.2333Z" fill="#444FB2"/>
<path fill-rule="evenodd" clip-rule="evenodd" d="M20.0001 10.5231L10.5235 25.5853H20.0001H29.4768L20.0001 10.5231ZM20.0001 3.93442C17.7213 3.93442 15.6352 5.08732 14.4198 7.01878L4.94357 22.0803C4.28341 23.1295 3.93457 24.3414 3.93457 25.5853C3.93457 29.2188 6.89048 32.1747 10.524 32.1747H20.0001H29.4763C33.1098 32.1747 36.0657 29.2188 36.0657 25.5853C36.0657 24.3414 35.7169 23.1295 35.0567 22.0803L25.5805 7.01878C24.3651 5.08732 22.279 3.93442 20.0001 3.93442Z" fill="#FF5C5C"/>
<path fill-rule="evenodd" clip-rule="evenodd" d="M19.9999 14.0585L13.9322 23.7026H19.9999H26.0676L19.9999 14.0585ZM19.9999 7.6998C19.023 7.6998 18.1285 8.19498 17.6066 9.02405L8.13042 24.0855C7.84459 24.5398 7.69971 25.0443 7.69971 25.5853C7.69971 27.1424 8.9666 28.4093 10.5237 28.4093H19.9999H29.4761C31.0332 28.4093 32.3001 27.1424 32.3001 25.5853C32.3001 25.0443 32.1552 24.5398 31.8694 24.0855L22.3932 9.0243C21.8713 8.19498 20.9768 7.6998 19.9999 7.6998Z" fill="#8CC4FF"/>
</svg>
