<svg width="66" height="76" viewBox="0 0 66 76" fill="none" xmlns="http://www.w3.org/2000/svg">
<path d="M50.0681 0.152085C43.4128 -0.90222 37.1675 3.63714 36.1132 10.2924L30.4243 46.2193C29.37 52.8746 33.9094 59.1199 40.5647 60.1742C47.22 61.2285 53.4653 56.6891 54.5196 50.0339L60.2084 14.107C61.2627 7.45168 56.7234 1.20639 50.0681 0.152085Z" fill="#0012AE"/>
<path d="M50.5076 12.2249C51.0055 12.3055 51.3349 12.7887 51.2544 13.3085L51.0274 14.7509C50.9469 15.2707 50.4783 15.6294 49.9805 15.5489C49.4826 15.4684 49.1531 14.9851 49.2337 14.4653L49.4606 13.023C49.5412 12.5031 50.0097 12.1444 50.5076 12.2249Z" fill="#8CC4FF"/>
<path d="M45.3459 11.3972C45.8877 11.4851 46.2537 11.9756 46.1732 12.4955L45.9462 13.9305C45.8657 14.4503 45.3605 14.8018 44.8187 14.7212C44.2769 14.6407 43.9108 14.1428 43.9914 13.623L44.2184 12.188C44.2989 11.6608 44.8041 11.3094 45.3459 11.3972Z" fill="#8CC4FF"/>
<path d="M49.2337 18.3369L44.5186 17.4217C44.5186 17.4217 43.8377 17.2021 44.1891 17.8098C44.482 18.3223 44.5918 19.3107 46.1 19.6475C47.9744 20.0575 48.8237 18.8641 49.1458 18.7762C49.468 18.6884 49.468 18.3808 49.2117 18.3369" fill="#FF5C5C"/>
<rect x="17.4546" y="28.4517" width="3.49099" height="31.8127" rx="1.7455" transform="rotate(-10.3128 17.4546 28.4517)" fill="#1A8AFF"/>
<path d="M15.4727 30.8609C14.2061 31.1141 12.8909 30.8537 11.8163 30.1371L5.54848 25.9573C4.47391 25.2407 3.72802 24.1266 3.47489 22.86L1.9984 15.4723C1.74528 14.2058 2.00565 12.8906 2.72224 11.816L6.90205 5.54817C7.61864 4.4736 8.73275 3.72771 9.99929 3.47458L17.387 1.99811C18.6535 1.74498 19.9687 2.00535 21.0433 2.72193L27.3112 6.90174C28.3857 7.61833 29.1316 8.73245 29.3848 9.99899L30.8612 17.3867C31.1144 18.6532 30.854 19.9684 30.1374 21.043L25.9575 27.3109C25.241 28.3854 24.1268 29.1313 22.8603 29.3845L15.4727 30.8609Z" fill="#FF5C5C" stroke="#FF5C5C" stroke-width="0.881451" stroke-miterlimit="10" stroke-linecap="round" stroke-linejoin="round"/>
<path d="M20.4725 11.2312C20.0542 10.9984 19.5544 10.962 19.1013 11.1318C18.9919 11.1725 18.8895 11.2256 18.7951 11.2883C18.4747 10.647 17.7534 10.2703 17.0176 10.4174C16.7326 10.4743 16.4801 10.6029 16.2747 10.7808C15.9014 10.3939 15.3453 10.1975 14.78 10.3105C14.0437 10.4577 13.5224 11.0821 13.4732 11.7978C13.3614 11.7764 13.247 11.7666 13.1303 11.7705C12.6469 11.7884 12.1993 12.0136 11.9026 12.3893C11.6054 12.7651 11.489 13.2499 11.5829 13.7198L12.509 18.354L11.9046 17.98C11.1412 17.5092 10.1363 17.7455 9.66424 18.5081C9.19135 19.2719 9.42744 20.2786 10.184 20.7485L12.2772 22.0898C13.8252 23.082 15.6699 23.4297 17.4723 23.0695L18.401 22.8839C21.0447 22.3555 22.7661 19.7741 22.2377 17.1305L21.2796 12.3365C21.1858 11.8671 20.8914 11.4644 20.4725 11.2312ZM21.1718 17.3446C21.5829 19.4012 20.2443 21.4085 18.1877 21.8195L17.2591 22.0051C15.7342 22.3098 14.1728 22.0157 12.8632 21.1765L10.7636 19.8309C10.5086 19.6724 10.4298 19.3363 10.5877 19.0809C10.7453 18.8273 11.0798 18.7488 11.3332 18.9053L13.001 19.9367C13.1855 20.0505 13.4196 20.0436 13.5968 19.9207C13.7743 19.7971 13.8622 19.5801 13.8198 19.368L12.6486 13.5074C12.6172 13.3507 12.6558 13.189 12.7555 13.0638C12.8564 12.9367 13.003 12.8636 13.1701 12.8568C13.4244 12.8481 13.6689 13.0652 13.7261 13.3513L14.2471 15.9582C14.3058 16.2523 14.5922 16.4433 14.8863 16.3845C15.1804 16.3258 15.3714 16.0394 15.3126 15.7453L14.5673 12.0158C14.5086 11.7222 14.7 11.4352 14.9936 11.3765C15.2871 11.3178 15.5742 11.5092 15.6328 11.8028L16.3782 15.5323C16.437 15.8264 16.7234 16.0174 17.0175 15.9586C17.3116 15.8998 17.5026 15.6134 17.4438 15.3193L16.8049 12.1226C16.7462 11.8291 16.9376 11.542 17.2312 11.4834C17.5248 11.4247 17.8118 11.6161 17.8705 11.9097L18.5094 15.1064C18.5681 15.4005 18.8545 15.5915 19.1486 15.5327C19.4427 15.4739 19.6337 15.1875 19.5749 14.8934L19.1604 12.8193C19.1031 12.5326 19.2449 12.2384 19.4836 12.1491C19.64 12.0918 19.8038 12.1017 19.9459 12.1808C20.0855 12.2582 20.1838 12.3926 20.2151 12.5492L21.1734 17.3443L21.1718 17.3446Z" fill="white"/>
<rect x="4.43801" y="50.5862" width="60.3483" height="17.4537" rx="8.72684" stroke="#0012AE" stroke-width="1.77495"/>
<circle cx="19.8206" cy="68.9273" r="5.76859" fill="white" stroke="#0012AE" stroke-width="1.77495"/>
<circle cx="49.4031" cy="68.9273" r="5.76859" fill="white" stroke="#0012AE" stroke-width="1.77495"/>
</svg>
