<svg xmlns="http://www.w3.org/2000/svg" width="43" height="40" viewBox="0 0 43 40" fill="none">
  <path d="M25.8984 9.90112C35.111 9.90112 42.6068 16.4806 42.6068 24.5687C42.6068 27.8835 41.3453 31.0643 39.0291 33.6207L42.3541 37.5055C42.6214 37.8156 42.682 38.2535 42.5107 38.6244C42.3416 38.9974 41.9698 39.2362 41.5625 39.2362H25.8984C16.6858 39.2362 9.19004 32.6568 9.19004 24.5687C9.19004 16.4806 16.6858 9.90112 25.8984 9.90112Z" fill="white"/>
  <path d="M16.9016 0.875C7.68904 0.875 0.193232 7.45445 0.193232 15.5426C0.193232 18.8574 1.45472 22.0382 3.77092 24.5945L0.445947 28.4793C0.178612 28.7895 0.118045 29.2274 0.289306 29.5983C0.458478 29.9712 0.83024 30.2101 1.23751 30.2101H16.9016C26.1142 30.2101 33.61 23.6307 33.61 15.5426C33.61 7.45445 26.1142 0.875 16.9016 0.875Z" fill="#2196F3"/>
  <path d="M11.9746 12.5339H24.8274C25.4188 12.5339 25.8984 12.0527 25.8984 11.4593C25.8984 10.866 25.4188 10.3848 24.8274 10.3848H11.9746C11.3829 10.3848 10.9035 10.866 10.9035 11.4593C10.9035 12.0527 11.3829 12.5339 11.9746 12.5339Z" fill="white"/>
  <path d="M7.69057 16.8322H24.8276C25.4191 16.8322 25.8987 16.351 25.8987 15.7577C25.8987 15.1643 25.4191 14.6831 24.8276 14.6831H7.69057C7.09892 14.6831 6.61951 15.1643 6.61951 15.7577C6.61951 16.351 7.09892 16.8322 7.69057 16.8322Z" fill="white"/>
  <path d="M7.69057 21.1303H24.8276C25.4191 21.1303 25.8987 20.6491 25.8987 20.0558C25.8987 19.4624 25.4191 18.9812 24.8276 18.9812H7.69057C7.09892 18.9812 6.61951 19.4624 6.61951 20.0558C6.61951 20.6491 7.09892 21.1303 7.69057 21.1303Z" fill="white"/>
</svg>