<svg width="142" height="42" viewBox="0 0 142 42" fill="none" xmlns="http://www.w3.org/2000/svg">
<path d="M136.279 41.5H5.24148C2.30625 41.5 0 39.2175 0 36.3125V5.1875C0 2.2825 2.30625 0 5.24148 0H136.279C139.214 0 141.52 2.2825 141.52 5.1875V36.3125C141.52 39.2175 139.214 41.5 136.279 41.5Z" fill="black"/>
<path d="M136.279 0.83C138.69 0.83 140.681 2.80125 140.681 5.1875V36.3125C140.681 38.6987 138.69 40.67 136.279 40.67H5.24148C2.8304 40.67 0.838637 38.6987 0.838637 36.3125V5.1875C0.838637 2.80125 2.8304 0.83 5.24148 0.83H136.279ZM136.279 0H5.24148C2.30625 0 0 2.38625 0 5.1875V36.3125C0 39.2175 2.30625 41.5 5.24148 41.5H136.279C139.214 41.5 141.52 39.2175 141.52 36.3125V5.1875C141.52 2.38625 139.214 0 136.279 0Z" fill="#A6A6A6"/>
<path d="M49.6892 10.5825C49.6892 11.4125 49.4795 12.1388 48.9554 12.6575C48.3264 13.28 47.5926 13.5913 46.6491 13.5913C45.7057 13.5913 44.9719 13.28 44.3429 12.6575C43.7139 12.035 43.3994 11.3088 43.3994 10.375C43.3994 9.44125 43.7139 8.715 44.3429 8.0925C44.9719 7.47 45.7057 7.15875 46.6491 7.15875C47.0684 7.15875 47.4878 7.2625 47.9071 7.47C48.3264 7.6775 48.6409 7.885 48.8506 8.19625L48.3264 8.715C47.9071 8.19625 47.3829 7.98875 46.6491 7.98875C46.0202 7.98875 45.3912 8.19625 44.9719 8.715C44.4477 9.13 44.2381 9.7525 44.2381 10.4788C44.2381 11.205 44.4477 11.8275 44.9719 12.2425C45.496 12.6575 46.0202 12.9688 46.6491 12.9688C47.3829 12.9688 47.9071 12.7613 48.4312 12.2425C48.7457 11.9313 48.9554 11.5163 48.9554 10.9975H46.6491V10.1675H49.6892V10.5825ZM54.5114 7.98875H51.681V9.96H54.3017V10.6863H51.681V12.6575H54.5114V13.4875H50.8423V7.2625H54.5114V7.98875ZM57.9707 13.4875H57.1321V7.98875H55.35V7.2625H59.7528V7.98875H57.9707V13.4875ZM62.7929 13.4875V7.2625H63.6315V13.4875H62.7929ZM67.1957 13.4875H66.3571V7.98875H64.575V7.2625H68.873V7.98875H67.0909V13.4875H67.1957ZM77.1545 12.6575C76.5256 13.28 75.7918 13.5913 74.8483 13.5913C73.9048 13.5913 73.171 13.28 72.542 12.6575C71.9131 12.035 71.5986 11.3088 71.5986 10.375C71.5986 9.44125 71.9131 8.715 72.542 8.0925C73.171 7.47 73.9048 7.15875 74.8483 7.15875C75.7918 7.15875 76.5256 7.47 77.1545 8.0925C77.7835 8.715 78.098 9.44125 78.098 10.375C78.098 11.3088 77.7835 12.035 77.1545 12.6575ZM73.171 12.1388C73.5903 12.5538 74.2193 12.865 74.8483 12.865C75.4773 12.865 76.1063 12.6575 76.5256 12.1388C76.9449 11.7238 77.2594 11.1013 77.2594 10.375C77.2594 9.64875 77.0497 9.02625 76.5256 8.61125C76.1063 8.19625 75.4773 7.885 74.8483 7.885C74.2193 7.885 73.5903 8.0925 73.171 8.61125C72.7517 9.02625 72.4372 9.64875 72.4372 10.375C72.4372 11.1013 72.6469 11.7238 73.171 12.1388ZM79.2511 13.4875V7.2625H80.1946L83.2347 12.1388V7.2625H84.0733V13.4875H83.2347L79.985 8.40375V13.4875H79.2511Z" fill="white"/>
<path d="M71.389 22.6175C68.8731 22.6175 66.8813 24.485 66.8813 27.0788C66.8813 29.5688 68.8731 31.54 71.389 31.54C73.9049 31.54 75.8966 29.6725 75.8966 27.0788C75.8966 24.3813 73.9049 22.6175 71.389 22.6175ZM71.389 29.6725C70.0262 29.6725 68.873 28.5313 68.873 26.975C68.873 25.4188 70.0262 24.2775 71.389 24.2775C72.7517 24.2775 73.9049 25.315 73.9049 26.975C73.9049 28.5313 72.7517 29.6725 71.389 29.6725ZM61.6398 22.6175C59.1239 22.6175 57.1321 24.485 57.1321 27.0788C57.1321 29.5688 59.1239 31.54 61.6398 31.54C64.1557 31.54 66.1475 29.6725 66.1475 27.0788C66.1475 24.3813 64.1557 22.6175 61.6398 22.6175ZM61.6398 29.6725C60.277 29.6725 59.1239 28.5313 59.1239 26.975C59.1239 25.4188 60.277 24.2775 61.6398 24.2775C63.0026 24.2775 64.1557 25.315 64.1557 26.975C64.1557 28.5313 63.0026 29.6725 61.6398 29.6725ZM50.0037 23.9663V25.8338H54.5114C54.4066 26.8713 53.9872 27.7013 53.4631 28.22C52.8341 28.8425 51.7858 29.5688 50.0037 29.5688C47.1733 29.5688 45.0767 27.39 45.0767 24.5888C45.0767 21.7875 47.2781 19.6088 50.0037 19.6088C51.4713 19.6088 52.6245 20.2313 53.4631 20.9575L54.8259 19.6088C53.6728 18.5713 52.2051 17.7413 50.1085 17.7413C46.3347 17.7413 43.085 20.8538 43.085 24.5888C43.085 28.3238 46.3347 31.4363 50.1085 31.4363C52.2051 31.4363 53.6728 30.8138 54.9307 29.465C56.1887 28.22 56.608 26.4563 56.608 25.1075C56.608 24.6925 56.608 24.2775 56.5032 23.9663H50.0037ZM97.5964 25.4188C97.1771 24.3813 96.1288 22.6175 93.8225 22.6175C91.5163 22.6175 89.6293 24.3813 89.6293 27.0788C89.6293 29.5688 91.5163 31.54 94.0322 31.54C96.0239 31.54 97.2819 30.295 97.7012 29.5688L96.2336 28.5313C95.7094 29.2575 95.0805 29.7763 94.0322 29.7763C92.9839 29.7763 92.3549 29.3613 91.8307 28.4275L97.806 25.9375L97.5964 25.4188ZM91.5163 26.8713C91.5163 25.2113 92.879 24.2775 93.8225 24.2775C94.5563 24.2775 95.2901 24.6925 95.4998 25.2113L91.5163 26.8713ZM86.5893 31.125H88.581V18.1563H86.5893V31.125ZM83.4444 23.5513C82.9202 23.0325 82.0816 22.5138 81.0333 22.5138C78.8319 22.5138 76.7353 24.485 76.7353 26.975C76.7353 29.465 78.727 31.3325 81.0333 31.3325C82.0816 31.3325 82.9202 30.8138 83.3395 30.295H83.4444V30.9175C83.4444 32.5775 82.5009 33.5113 81.0333 33.5113C79.8802 33.5113 79.0415 32.6813 78.8319 31.955L77.1546 32.6813C77.6787 33.8225 78.9367 35.275 81.1381 35.275C83.4444 35.275 85.3313 33.9263 85.3313 30.71V22.825H83.4444V23.5513ZM81.1381 29.6725C79.7753 29.6725 78.6222 28.5313 78.6222 26.975C78.6222 25.4188 79.7753 24.2775 81.1381 24.2775C82.5009 24.2775 83.5492 25.4188 83.5492 26.975C83.5492 28.5313 82.5009 29.6725 81.1381 29.6725ZM106.717 18.1563H101.999V31.125H103.991V26.2488H106.717C108.918 26.2488 111.015 24.6925 111.015 22.2025C111.015 19.7125 108.918 18.1563 106.717 18.1563ZM106.821 24.3813H103.991V19.92H106.821C108.289 19.92 109.128 21.165 109.128 22.0988C109.023 23.24 108.184 24.3813 106.821 24.3813ZM118.877 22.5138C117.409 22.5138 115.942 23.1363 115.417 24.485L117.2 25.2113C117.619 24.485 118.248 24.2775 118.982 24.2775C120.03 24.2775 120.973 24.9 121.078 25.9375V26.0413C120.764 25.8338 119.925 25.5225 119.086 25.5225C117.2 25.5225 115.313 26.56 115.313 28.4275C115.313 30.1913 116.885 31.3325 118.562 31.3325C119.925 31.3325 120.554 30.71 121.078 30.0875H121.183V31.125H123.07V26.145C122.86 23.8625 121.078 22.5138 118.877 22.5138ZM118.667 29.6725C118.038 29.6725 117.095 29.3613 117.095 28.5313C117.095 27.4938 118.248 27.1825 119.191 27.1825C120.03 27.1825 120.449 27.39 120.973 27.5975C120.764 28.8425 119.715 29.6725 118.667 29.6725ZM129.674 22.825L127.473 28.4275H127.368L125.062 22.825H122.965L126.425 30.71L124.433 35.0675H126.425L131.771 22.825H129.674ZM112.063 31.125H114.055V18.1563H112.063V31.125Z" fill="white"/>
<path d="M10.9022 7.78127C10.5877 8.09252 10.4829 8.61126 10.4829 9.23376V32.1625C10.4829 32.785 10.6926 33.3038 11.0071 33.615L11.1119 33.7188L24.1108 20.8538V20.6463L10.9022 7.78127Z" fill="url(#paint0_linear_3876_2870)"/>
<path d="M28.304 25.2113L24.006 20.9575V20.6463L28.304 16.3925L28.4088 16.4963L33.5455 19.4013C35.0131 20.2313 35.0131 21.58 33.5455 22.41L28.304 25.2113Z" fill="url(#paint1_linear_3876_2870)"/>
<path d="M28.4089 25.1075L24.006 20.75L10.9023 33.7188C11.4265 34.2375 12.1603 34.2375 13.1038 33.8225L28.4089 25.1075Z" fill="url(#paint2_linear_3876_2870)"/>
<path d="M28.4089 16.3925L13.1038 7.78127C12.1603 7.26252 11.4265 7.36627 10.9023 7.88502L24.006 20.75L28.4089 16.3925Z" fill="url(#paint3_linear_3876_2870)"/>
<path opacity="0.2" d="M28.3041 25.0038L13.1038 33.5113C12.2651 34.03 11.5313 33.9263 11.0072 33.5113L10.9023 33.615L11.0072 33.7188C11.5313 34.1338 12.2651 34.2375 13.1038 33.7188L28.3041 25.0038Z" fill="black"/>
<path opacity="0.12" d="M10.9022 33.5113C10.5877 33.2 10.4829 32.6813 10.4829 32.0588V32.1625C10.4829 32.785 10.6926 33.3038 11.0071 33.615V33.5113H10.9022ZM33.5454 22.0988L28.3039 25.0038L28.4088 25.1075L33.5454 22.2025C34.2792 21.7875 34.5937 21.2688 34.5937 20.75C34.5937 21.2688 34.1744 21.6838 33.5454 22.0988Z" fill="black"/>
<path opacity="0.25" d="M13.1037 7.88501L33.5454 19.4013C34.1744 19.8163 34.5937 20.2313 34.5937 20.75C34.5937 20.2313 34.2792 19.7125 33.5454 19.2975L13.1037 7.78126C11.636 6.95126 10.4829 7.57376 10.4829 9.23376V9.33751C10.4829 7.78126 11.636 7.05501 13.1037 7.88501Z" fill="white"/>
<defs>
<linearGradient id="paint0_linear_3876_2870" x1="22.8528" y1="9.03664" x2="5.44137" y2="26.6282" gradientUnits="userSpaceOnUse">
<stop stop-color="#00A0FF"/>
<stop offset="0.007" stop-color="#00A1FF"/>
<stop offset="0.26" stop-color="#00BEFF"/>
<stop offset="0.512" stop-color="#00D2FF"/>
<stop offset="0.76" stop-color="#00DFFF"/>
<stop offset="1" stop-color="#00E3FF"/>
</linearGradient>
<linearGradient id="paint1_linear_3876_2870" x1="35.4681" y1="20.7511" x2="10.1024" y2="20.7511" gradientUnits="userSpaceOnUse">
<stop stop-color="#FFE000"/>
<stop offset="0.409" stop-color="#FFBD00"/>
<stop offset="0.775" stop-color="#FFA500"/>
<stop offset="1" stop-color="#FF9C00"/>
</linearGradient>
<linearGradient id="paint2_linear_3876_2870" x1="26.0261" y1="23.1321" x2="2.41596" y2="46.988" gradientUnits="userSpaceOnUse">
<stop stop-color="#FF3A44"/>
<stop offset="1" stop-color="#C31162"/>
</linearGradient>
<linearGradient id="paint3_linear_3876_2870" x1="7.64948" y1="0.182619" x2="18.193" y2="10.8359" gradientUnits="userSpaceOnUse">
<stop stop-color="#32A071"/>
<stop offset="0.069" stop-color="#2DA771"/>
<stop offset="0.476" stop-color="#15CF74"/>
<stop offset="0.801" stop-color="#06E775"/>
<stop offset="1" stop-color="#00F076"/>
</linearGradient>
</defs>
</svg>
