<svg width="83" height="82" viewBox="0 0 83 82" fill="none" xmlns="http://www.w3.org/2000/svg">
<rect width="82.057" height="81.51" rx="8.36" fill="#F0F3FC"/>
<path d="M29.7175 16.4101C25.3847 17.0965 22.4295 21.1623 23.1159 25.4951L26.8194 48.8846C27.5058 53.2174 31.5717 56.1727 35.9044 55.4863C40.2372 54.7999 43.1924 50.7341 42.506 46.4013L38.8072 23.0118C38.1209 18.679 34.0503 15.7237 29.7175 16.4101Z" fill="#8CC4FF"/>
<path d="M28.2716 23.022C27.9303 23.0792 27.6939 23.4033 27.7421 23.7417L27.8777 24.6807C27.9259 25.0192 28.2454 25.248 28.5867 25.186C28.9281 25.1288 29.1644 24.8047 29.1163 24.4662L28.9806 23.532C28.9325 23.1936 28.613 22.9648 28.2716 23.022Z" fill="#FF5C5C"/>
<path d="M34.7903 21.8678C34.4185 21.925 34.1611 22.2491 34.2136 22.5876L34.3613 23.5266C34.4138 23.865 34.7617 24.0938 35.1335 24.0318C35.5053 23.9746 35.7627 23.6505 35.7103 23.3121L35.5625 22.3778C35.5101 22.0346 35.1621 21.8058 34.7903 21.8678Z" fill="#FF5C5C"/>
<path d="M29.5564 26.5589C29.5564 26.5589 33.5555 25.5245 33.0121 26.2205C32.8263 26.4588 32.7881 27.1785 31.7443 27.4312C30.4478 27.741 29.8424 26.9211 29.6184 26.8639C29.3944 26.8067 29.423 26.6161 29.5898 26.5541" fill="#0012AE"/>
<path d="M29.5564 26.5589C29.5564 26.5589 33.5555 25.5245 33.0121 26.2205C32.8263 26.4588 32.7881 27.1785 31.7443 27.4312C30.4478 27.741 29.8424 26.9211 29.6184 26.8639C29.3944 26.8067 29.423 26.6161 29.5898 26.5541" stroke="#0012AE" stroke-width="0.0887871"/>
<path d="M41.7175 24.4566C41.7175 23.1073 42.8114 22.0135 44.1607 22.0135H52.7117C54.3984 22.0135 55.7657 23.3808 55.7657 25.0674V25.0674C55.7657 26.7541 54.3984 28.1214 52.7117 28.1214H44.1607C42.8114 28.1214 41.7175 27.0275 41.7175 25.6782V24.4566Z" fill="#0012AE" stroke="#0012AE" stroke-width="0.244315"/>
<path d="M56.5761 41.4635H52.4242C52.2189 41.4635 52.0248 41.3695 51.8974 41.2085L51.2977 40.4503C51.1236 40.2301 50.7896 40.2301 50.6156 40.4503L50.0159 41.2085C49.8885 41.3695 49.6944 41.4635 49.4891 41.4635H47.6093C47.0628 41.4635 46.5906 41.0847 46.4695 40.5517C46.3031 39.8184 46.1842 38.8483 46.1842 37.7233V24.6045C46.1842 23.3119 45.1363 22.2641 43.8438 22.2641H57.5683C58.8609 22.2641 59.9087 23.3119 59.9087 24.6045V33.4646" fill="#1A8AFF"/>
<path d="M56.5761 41.4635H52.4242C52.2189 41.4635 52.0248 41.3695 51.8974 41.2085L51.2977 40.4503C51.1236 40.2301 50.7896 40.2301 50.6156 40.4503L50.0159 41.2085C49.8885 41.3695 49.6944 41.4635 49.4891 41.4635H47.6093C47.0628 41.4635 46.5906 41.0847 46.4695 40.5517C46.3031 39.8184 46.1842 38.8483 46.1842 37.7233V24.6045C46.1842 23.3119 45.1363 22.2641 43.8438 22.2641H57.5683C58.8609 22.2641 59.9087 23.3119 59.9087 24.6045V33.4646" stroke="#1A8AFF" stroke-width="0.791914" stroke-miterlimit="10" stroke-linecap="round" stroke-linejoin="round"/>
<path d="M59.9092 37.3061V37.7233C59.9092 38.627 59.986 39.4308 60.1024 40.0922C60.2283 40.8069 59.6846 41.4635 58.9591 41.4635H58.5201" stroke="black" stroke-width="0.791914" stroke-miterlimit="10" stroke-linecap="round" stroke-linejoin="round"/>
<path d="M56.9211 26.8198H49.1723" stroke="white" stroke-width="0.791914" stroke-miterlimit="10" stroke-linecap="round" stroke-linejoin="round"/>
<path d="M55.6995 29.729H49.1722" stroke="white" stroke-width="0.791914" stroke-miterlimit="10" stroke-linecap="round" stroke-linejoin="round"/>
<path d="M53.3228 33.0076H49.658" stroke="white" stroke-width="0.791914" stroke-miterlimit="10" stroke-linecap="round" stroke-linejoin="round"/>
<path d="M61.4814 38.5847V44.7861L59.074 42.9282L56.6675 44.7861V38.5855C57.2709 39.2248 58.1256 39.6239 59.074 39.6239C60.0225 39.6239 60.878 39.2248 61.4814 38.5847Z" fill="#8CC4FF"/>
<path d="M63.0952 36.0615C63.0952 38.4228 61.181 40.337 58.8197 40.337C56.4583 40.337 54.5442 38.4228 54.5442 36.0615C54.5442 33.7001 56.4583 31.786 58.8197 31.786C61.181 31.786 63.0952 33.7001 63.0952 36.0615Z" fill="#FF5C5C"/>
<path fill-rule="evenodd" clip-rule="evenodd" d="M29.5472 23.6432C29.8293 25.163 28.835 26.6298 27.3145 26.9277C25.7847 27.2274 24.3015 26.2303 24.0018 24.7005C23.9942 24.6618 23.9875 24.6232 23.9815 24.5846L23.5175 24.6755C23.3263 24.713 23.1409 24.5883 23.1034 24.3971C23.0659 24.2059 23.1906 24.0205 23.3818 23.983L23.9632 23.8691C24.0864 22.6657 24.9803 21.6324 26.229 21.3878C27.5016 21.1384 28.742 21.7865 29.2956 22.8921C29.8003 22.4753 30.4882 22.3405 31.1128 22.5361C31.2083 21.3033 32.1123 20.235 33.3849 19.9857C34.6337 19.741 35.8513 20.3605 36.4197 21.4284L37.001 21.3145C37.1923 21.277 37.3776 21.4017 37.4151 21.5929C37.4526 21.7842 37.3279 21.9695 37.1367 22.007L36.6727 22.0979C36.6817 22.1359 36.6901 22.1742 36.6976 22.2129C36.9974 23.7427 36.0002 25.2258 34.4704 25.5256C32.95 25.8235 31.4757 24.8404 31.1633 23.3266C30.6241 23.0058 29.9255 23.1427 29.5472 23.6432ZM28.8493 23.7507C29.0741 24.898 28.3262 26.0104 27.1789 26.2352C26.0315 26.46 24.9191 25.7121 24.6943 24.5648C24.4695 23.4174 25.2174 22.3051 26.3647 22.0802C27.5121 21.8554 28.6245 22.6033 28.8493 23.7507ZM34.3347 24.8331C35.4821 24.6083 36.23 23.4959 36.0051 22.3486C35.7803 21.2012 34.6679 20.4534 33.5206 20.6782C32.3732 20.903 31.6253 22.0153 31.8501 23.1627C32.0749 24.31 33.1873 25.0579 34.3347 24.8331Z" fill="#0012AE"/>
<rect x="17.7333" y="48.0886" width="39.2885" height="11.3629" rx="5.68143" stroke="#0012AE" stroke-width="1.15554"/>
<circle cx="27.7481" cy="60.0292" r="3.75552" fill="white" stroke="#0012AE" stroke-width="1.15554"/>
<circle cx="47.0071" cy="60.0292" r="3.75552" fill="white" stroke="#0012AE" stroke-width="1.15554"/>
<path d="M7.58558 11.6098C7.43667 11.6098 7.31519 11.4883 7.31519 11.3394V8.14567C7.31519 7.68719 7.68746 7.31491 8.14595 7.31491H11.3436C11.4925 7.31491 11.614 7.43639 11.614 7.5853C11.614 7.73421 11.4925 7.85569 11.3436 7.85569H8.14595C7.98528 7.85569 7.85597 7.98501 7.85597 8.14567V11.3394C7.85597 11.4883 7.73449 11.6098 7.58558 11.6098Z" fill="#0012AE"/>
<path d="M74.1583 11.6097C74.0094 11.6097 73.8879 11.4883 73.8879 11.3394V8.14563C73.8879 7.98496 73.7586 7.85564 73.5979 7.85564H70.4042C70.2553 7.85564 70.1338 7.73417 70.1338 7.58526C70.1338 7.43635 70.2553 7.31487 70.4042 7.31487H73.5979C74.0564 7.31487 74.4287 7.68714 74.4287 8.14563V11.3394C74.4287 11.4883 74.3072 11.6097 74.1583 11.6097Z" fill="#0012AE"/>
<path d="M74.1583 70.0148C74.3072 70.0148 74.4287 70.1363 74.4287 70.2852L74.4287 73.4789C74.4287 73.9374 74.0564 74.3097 73.5979 74.3097L70.4003 74.3097C70.2514 74.3097 70.1299 74.1882 70.1299 74.0393C70.1299 73.8904 70.2514 73.7689 70.4003 73.7689L73.5979 73.7689C73.7586 73.7689 73.8879 73.6396 73.8879 73.4789L73.8879 70.2852C73.8879 70.1363 74.0094 70.0148 74.1583 70.0148Z" fill="#0012AE"/>
<path d="M7.58538 70.0148C7.73429 70.0148 7.85577 70.1363 7.85577 70.2852L7.85577 73.4789C7.85577 73.6396 7.98508 73.7689 8.14575 73.7689L11.3395 73.7689C11.4884 73.7689 11.6099 73.8904 11.6099 74.0393C11.6099 74.1882 11.4884 74.3097 11.3395 74.3097L8.14575 74.3097C7.68726 74.3097 7.31499 73.9374 7.31499 73.4789L7.31499 70.2852C7.31499 70.1363 7.43647 70.0148 7.58538 70.0148Z" fill="#0012AE"/>
</svg>
