<svg width="79" height="79" viewBox="0 0 79 79" fill="none" xmlns="http://www.w3.org/2000/svg">
<path d="M20.8401 3.66165C14.2575 4.70444 9.7678 10.8815 10.8106 17.4641L16.4372 52.9984C17.48 59.581 23.657 64.0708 30.2395 63.028C36.8221 61.9852 41.3118 55.8082 40.269 49.2256L34.6496 13.6912C33.6068 7.10864 27.4226 2.61887 20.8401 3.66165Z" fill="#8CC4FF"/>
<path d="M18.6433 13.7069C18.1247 13.7938 17.7657 14.2862 17.8388 14.8004L18.0449 16.227C18.1181 16.7411 18.6034 17.0887 19.122 16.9946C19.6407 16.9077 19.9997 16.4153 19.9266 15.9011L19.7204 14.4818C19.6473 13.9676 19.1619 13.62 18.6433 13.7069Z" fill="#FF5C5C"/>
<path d="M28.5469 11.9534C27.9821 12.0403 27.591 12.5327 27.6707 13.0469L27.8952 14.4734C27.9748 14.9876 28.5035 15.3352 29.0683 15.241C29.6331 15.1541 30.0242 14.6617 29.9445 14.1476L29.72 12.7282C29.6404 12.2068 29.1118 11.8592 28.5469 11.9534Z" fill="#FF5C5C"/>
<path d="M20.5956 19.0801C20.5956 19.0801 26.6712 17.5086 25.8457 18.5659C25.5632 18.928 25.5053 20.0215 23.9194 20.4053C21.9497 20.876 21.0301 19.6304 20.6897 19.5435C20.3494 19.4566 20.3928 19.167 20.6463 19.0728" fill="#0012AE"/>
<path d="M20.5956 19.0801C20.5956 19.0801 26.6712 17.5086 25.8457 18.5659C25.5632 18.928 25.5053 20.0215 23.9194 20.4053C21.9497 20.876 21.0301 19.6304 20.6897 19.5435C20.3494 19.4566 20.3928 19.167 20.6463 19.0728" stroke="#0012AE" stroke-width="0.134889"/>
<path d="M39.0713 15.8863C39.0713 13.8364 40.7331 12.1746 42.783 12.1746H55.7741C58.3366 12.1746 60.4138 14.2518 60.4138 16.8142C60.4138 19.3767 58.3366 21.4539 55.7741 21.4539H42.783C40.7331 21.4539 39.0713 19.7921 39.0713 17.7422V15.8863Z" fill="#0012AE" stroke="#0012AE" stroke-width="0.371175"/>
<path d="M61.6452 41.7239H55.3375C55.0256 41.7239 54.7306 41.5812 54.5371 41.3365L53.6261 40.1846C53.3616 39.8502 52.8542 39.8502 52.5898 40.1846L51.6787 41.3365C51.4851 41.5812 51.1903 41.7239 50.8783 41.7239H48.0224C47.1922 41.7239 46.4747 41.1484 46.2909 40.3387C46.038 39.2246 45.8574 37.7507 45.8574 36.0416V16.1109C45.8574 14.1472 44.2654 12.5553 42.3018 12.5553H63.1527C65.1164 12.5553 66.7083 14.1472 66.7083 16.1109V29.5716" fill="#1A8AFF"/>
<path d="M61.6452 41.7239H55.3375C55.0256 41.7239 54.7306 41.5812 54.5371 41.3365L53.6261 40.1846C53.3616 39.8502 52.8542 39.8502 52.5898 40.1846L51.6787 41.3365C51.4851 41.5812 51.1903 41.7239 50.8783 41.7239H48.0224C47.1922 41.7239 46.4747 41.1484 46.2909 40.3387C46.038 39.2246 45.8574 37.7507 45.8574 36.0416V16.1109C45.8574 14.1472 44.2654 12.5553 42.3018 12.5553H63.1527C65.1164 12.5553 66.7083 14.1472 66.7083 16.1109V29.5716" stroke="#1A8AFF" stroke-width="1.20311" stroke-miterlimit="10" stroke-linecap="round" stroke-linejoin="round"/>
<path d="M66.7086 35.4079V36.0416C66.7086 37.4147 66.8252 38.6358 67.0022 39.6407C67.1934 40.7263 66.3674 41.7239 65.2651 41.7239H64.5982" stroke="black" stroke-width="1.20311" stroke-miterlimit="10" stroke-linecap="round" stroke-linejoin="round"/>
<path d="M62.1692 19.4766H50.3968" stroke="white" stroke-width="1.20311" stroke-miterlimit="10" stroke-linecap="round" stroke-linejoin="round"/>
<path d="M60.3132 23.8965H50.3967" stroke="white" stroke-width="1.20311" stroke-miterlimit="10" stroke-linecap="round" stroke-linejoin="round"/>
<path d="M56.7021 28.8772H51.1345" stroke="white" stroke-width="1.20311" stroke-miterlimit="10" stroke-linecap="round" stroke-linejoin="round"/>
<path d="M69.0975 37.3503V46.7717L65.44 43.9491L61.7839 46.7717V37.3515C62.7007 38.3228 63.9991 38.929 65.44 38.929C66.8811 38.929 68.1807 38.3228 69.0975 37.3503Z" fill="#8CC4FF"/>
<path d="M71.549 33.5168C71.549 37.1043 68.6408 40.0125 65.0533 40.0125C61.4659 40.0125 58.5579 37.1043 58.5579 33.5168C58.5579 29.9294 61.4659 27.0213 65.0533 27.0213C68.6408 27.0213 71.549 29.9294 71.549 33.5168Z" fill="#FF5C5C"/>
<path fill-rule="evenodd" clip-rule="evenodd" d="M20.5816 14.6506C21.0101 16.9595 19.4995 19.1879 17.1896 19.6405C14.8654 20.0959 12.6121 18.5809 12.1567 16.2568C12.1452 16.1981 12.135 16.1394 12.126 16.0807L11.421 16.2189C11.1305 16.2758 10.8488 16.0864 10.7919 15.7959C10.7349 15.5054 10.9243 15.2237 11.2148 15.1668L12.098 14.9938C12.2853 13.1654 13.6433 11.5957 15.5405 11.224C17.4739 10.8452 19.3582 11.8298 20.1994 13.5095C20.966 12.8762 22.0111 12.6714 22.9601 12.9686C23.1051 11.0956 24.4785 9.47271 26.412 9.09389C28.3092 8.72215 30.1591 9.66331 31.0225 11.2858L31.9057 11.1127C32.1963 11.0558 32.4779 11.2452 32.5348 11.5357C32.5918 11.8262 32.4024 12.1079 32.1119 12.1648L31.407 12.3029C31.4206 12.3606 31.4333 12.4188 31.4448 12.4776C31.9002 14.8017 30.3853 17.055 28.0611 17.5103C25.7512 17.9629 23.5114 16.4694 23.0368 14.1695C22.2177 13.6822 21.1562 13.8902 20.5816 14.6506ZM19.5213 14.8138C19.8628 16.5569 18.7266 18.2469 16.9835 18.5884C15.2403 18.93 13.5504 17.7938 13.2088 16.0507C12.8673 14.3076 14.0035 12.6176 15.7466 12.2761C17.4898 11.9345 19.1797 13.0707 19.5213 14.8138ZM27.8549 16.4583C29.5981 16.1168 30.7343 14.4268 30.3928 12.6837C30.0512 10.9406 28.3612 9.80441 26.6181 10.1459C24.875 10.4875 23.7387 12.1774 24.0803 13.9205C24.4218 15.6636 26.1118 16.7998 27.8549 16.4583Z" fill="#0012AE"/>
<rect x="2.63339" y="51.7889" width="59.6889" height="17.263" rx="8.63148" stroke="#0012AE" stroke-width="1.75556"/>
<circle cx="17.8482" cy="69.9298" r="5.70556" fill="white" stroke="#0012AE" stroke-width="1.75556"/>
<circle cx="47.1073" cy="69.9298" r="5.70556" fill="white" stroke="#0012AE" stroke-width="1.75556"/>
</svg>
