<svg xmlns="http://www.w3.org/2000/svg" width="142" height="42" viewBox="0 0 142 42" fill="none">
  <path d="M140.729 36.71C140.729 38.9214 138.928 40.7126 136.7 40.7126H4.82124C2.594 40.7126 0.786133 38.9214 0.786133 36.71V4.79067C0.786133 2.58036 2.594 0.782852 4.82124 0.782852H136.698C138.928 0.782852 140.728 2.58036 140.728 4.79067L140.729 36.71Z" fill="black"/>
  <path d="M136.274 0.831184C138.701 0.831184 140.676 2.78537 140.676 5.18693V36.3087C140.676 38.7102 138.701 40.6644 136.274 40.6644H5.24132C2.81459 40.6644 0.839921 38.7102 0.839921 36.3087V5.18693C0.839921 2.78537 2.81459 0.831184 5.24132 0.831184H136.274ZM136.274 -2.38537e-05H5.24132C2.3599 -2.38537e-05 0 2.3354 0 5.18693V36.3087C0 39.1602 2.3599 41.4956 5.24132 41.4956H136.274C139.156 41.4956 141.516 39.1602 141.516 36.3087V5.18693C141.516 2.3354 139.156 -2.38537e-05 136.274 -2.38537e-05Z" fill="#A6A6A6"/>
  <path d="M31.5824 20.5237C31.552 17.1802 34.3487 15.5535 34.4766 15.4778C32.8927 13.1924 30.4376 12.8802 29.5749 12.8553C27.513 12.6406 25.5129 14.0763 24.4625 14.0763C23.3912 14.0763 21.7737 12.876 20.0305 12.9113C17.7872 12.9455 15.6886 14.2309 14.5376 16.2268C12.1622 20.2965 13.9338 26.2771 16.2096 29.5666C17.348 31.1777 18.6782 32.9765 20.4194 32.9133C22.1228 32.8437 22.7591 31.8385 24.8148 31.8385C26.8515 31.8385 27.449 32.9133 29.2248 32.8728C31.053 32.8437 32.204 31.2545 33.3026 29.6289C34.6181 27.7823 35.1464 25.9638 35.1674 25.8704C35.1244 25.8559 31.6169 24.5311 31.5824 20.5237Z" fill="white"/>
  <path d="M28.2279 10.6913C29.1441 9.55743 29.771 8.01483 29.5969 6.4494C28.2709 6.5075 26.6125 7.35712 25.6576 8.46609C24.8127 9.44331 24.0579 11.045 24.2529 12.5513C25.7425 12.6613 27.2719 11.8075 28.2279 10.6913Z" fill="white"/>
  <path d="M56.2343 32.6819H53.8537L52.5496 28.6267H48.0169L46.7747 32.6819H44.457L48.9478 18.8763H51.7215L56.2343 32.6819ZM52.1565 26.9254L50.9772 23.3204C50.8525 22.9522 50.6187 22.0849 50.2738 20.7197H50.2319C50.0946 21.3069 49.8734 22.1741 49.5694 23.3204L48.4111 26.9254H52.1565Z" fill="white"/>
  <path d="M67.8774 27.5908C67.8774 29.2838 67.4152 30.622 66.4906 31.6044C65.6625 32.4789 64.6341 32.9157 63.4066 32.9157C62.0816 32.9157 61.1298 32.4447 60.5501 31.5028H60.5081V36.7468H58.2732V26.0129C58.2732 24.9485 58.2449 23.8562 58.1904 22.7358H60.1559L60.2807 24.3136H60.3226C61.0679 23.1248 62.199 22.5314 63.7169 22.5314C64.9035 22.5314 65.8941 22.9951 66.6866 23.9236C67.4812 24.8531 67.8774 26.0751 67.8774 27.5908ZM65.6006 27.6717C65.6006 26.7028 65.3805 25.904 64.9381 25.2753C64.4549 24.6197 63.806 24.2919 62.9925 24.2919C62.4411 24.2919 61.9401 24.4744 61.4925 24.8344C61.0438 25.1975 60.7503 25.6716 60.613 26.2588C60.5438 26.5326 60.5092 26.7567 60.5092 26.9331V28.5929C60.5092 29.317 60.7335 29.928 61.1822 30.427C61.6308 30.926 62.2137 31.1749 62.9307 31.1749C63.7724 31.1749 64.4276 30.8534 64.8962 30.2122C65.3658 29.5701 65.6006 28.7236 65.6006 27.6717Z" fill="white"/>
  <path d="M79.3526 27.582C79.3526 29.2751 78.8903 30.6133 77.9647 31.5957C77.1376 32.4702 76.1093 32.907 74.8817 32.907C73.5567 32.907 72.6049 32.436 72.0263 31.4941H71.9843V36.7381H69.7494V26.0042C69.7494 24.9398 69.7211 23.8474 69.6666 22.7271H71.6321L71.7569 24.3049H71.7988C72.5431 23.1161 73.6741 22.5227 75.1931 22.5227C76.3787 22.5227 77.3693 22.9864 78.1639 23.9149C78.9553 24.8444 79.3526 26.0664 79.3526 27.582ZM77.0758 27.663C77.0758 26.694 76.8546 25.8952 76.4122 25.2666C75.929 24.611 75.2822 24.2831 74.4677 24.2831C73.9152 24.2831 73.4152 24.4657 72.9666 24.8257C72.5179 25.1888 72.2254 25.6629 72.0881 26.25C72.02 26.5239 71.9843 26.748 71.9843 26.9243V28.5842C71.9843 29.3083 72.2087 29.9193 72.6552 30.4183C73.1039 30.9162 73.6867 31.1662 74.4058 31.1662C75.2476 31.1662 75.9028 30.8446 76.3713 30.2035C76.841 29.5614 77.0758 28.7149 77.0758 27.663Z" fill="white"/>
  <path d="M92.2883 28.8104C92.2883 29.9847 91.8763 30.9401 91.0492 31.6777C90.1404 32.4838 88.8751 32.8863 87.2493 32.8863C85.7481 32.8863 84.5447 32.6 83.6338 32.0263L84.1516 30.1828C85.1328 30.77 86.2094 31.0646 87.3824 31.0646C88.2241 31.0646 88.8793 30.8758 89.35 30.5003C89.8185 30.1248 90.0523 29.6206 90.0523 28.9919C90.0523 28.4317 89.8594 27.9597 89.4726 27.5769C89.0879 27.1941 88.4453 26.8383 87.548 26.5094C85.1056 25.608 83.8854 24.2874 83.8854 22.5508C83.8854 21.4159 84.3131 20.4853 85.1695 19.7612C86.0228 19.0361 87.1612 18.674 88.5847 18.674C89.8542 18.674 90.9087 18.8929 91.7505 19.3297L91.1918 21.1326C90.4056 20.7094 89.5166 20.4978 88.5218 20.4978C87.7356 20.4978 87.1214 20.6897 86.6811 21.0714C86.309 21.4127 86.1224 21.8287 86.1224 22.3215C86.1224 22.8672 86.3352 23.3184 86.7629 23.6732C87.135 24.001 87.8111 24.3558 88.7923 24.7386C89.9926 25.2169 90.8742 25.776 91.4413 26.4171C92.0063 27.0562 92.2883 27.856 92.2883 28.8104Z" fill="white"/>
  <path d="M99.6773 24.3869H97.2139V29.2201C97.2139 30.4494 97.6479 31.0636 98.5179 31.0636C98.9173 31.0636 99.2486 31.0294 99.5106 30.9609L99.5725 32.6404C99.1322 32.8033 98.5525 32.8852 97.8345 32.8852C96.9518 32.8852 96.2621 32.6186 95.7642 32.0865C95.2683 31.5532 95.0188 30.659 95.0188 29.4027V24.3849H93.5513V22.725H95.0188V20.9023L97.2139 20.2467V22.725H99.6773V24.3869Z" fill="white"/>
  <path d="M110.792 27.6226C110.792 29.1527 110.35 30.409 109.467 31.3914C108.542 32.4029 107.313 32.907 105.782 32.907C104.306 32.907 103.13 32.4226 102.254 31.4536C101.378 30.4847 100.94 29.2616 100.94 27.7875C100.94 26.2449 101.39 24.9814 102.295 23.9989C103.198 23.0155 104.416 22.5238 105.947 22.5238C107.423 22.5238 108.611 23.0082 109.507 23.9782C110.365 24.9191 110.792 26.1339 110.792 27.6226ZM108.473 27.6941C108.473 26.776 108.275 25.9887 107.874 25.332C107.405 24.5374 106.735 24.1411 105.867 24.1411C104.969 24.1411 104.287 24.5384 103.818 25.332C103.417 25.9897 103.219 26.7895 103.219 27.7356C103.219 28.6537 103.417 29.4411 103.818 30.0967C104.301 30.8914 104.976 31.2877 105.848 31.2877C106.701 31.2877 107.371 30.8831 107.854 30.076C108.266 29.4069 108.473 28.6112 108.473 27.6941Z" fill="white"/>
  <path d="M118.057 24.6722C117.836 24.6317 117.6 24.611 117.352 24.611C116.566 24.611 115.958 24.9045 115.53 25.4927C115.158 26.0114 114.972 26.6671 114.972 27.4586V32.6819H112.738L112.759 25.8621C112.759 24.7147 112.73 23.67 112.675 22.7281H114.622L114.703 24.6327H114.765C115.001 23.9782 115.373 23.4512 115.883 23.0559C116.381 22.7001 116.918 22.5227 117.498 22.5227C117.705 22.5227 117.891 22.5372 118.057 22.5631V24.6722Z" fill="white"/>
  <path d="M128.052 27.2336C128.052 27.6298 128.026 27.9639 127.97 28.2367H121.265C121.292 29.2202 121.616 29.9723 122.238 30.491C122.803 30.9547 123.534 31.1871 124.431 31.1871C125.424 31.1871 126.33 31.0304 127.144 30.7161L127.494 32.2514C126.542 32.6622 125.419 32.8666 124.122 32.8666C122.562 32.8666 121.338 32.4122 120.447 31.5045C119.558 30.5968 119.112 29.3778 119.112 27.8487C119.112 26.3476 119.526 25.0976 120.356 24.1006C121.224 23.0363 122.397 22.5041 123.872 22.5041C125.322 22.5041 126.42 23.0363 127.165 24.1006C127.755 24.9461 128.052 25.9918 128.052 27.2336ZM125.921 26.6599C125.935 26.0042 125.79 25.4378 125.487 24.9596C125.1 24.3444 124.506 24.0374 123.706 24.0374C122.975 24.0374 122.381 24.3372 121.927 24.9388C121.555 25.4171 121.334 25.9908 121.265 26.6588H125.921V26.6599Z" fill="white"/>
  <path d="M51.4173 10.3833C51.4173 11.6043 51.0473 12.5235 50.3082 13.1407C49.6237 13.7102 48.6509 13.9955 47.3909 13.9955C46.7662 13.9955 46.2315 13.9685 45.7839 13.9146V7.24314C46.3678 7.14977 46.9968 7.10205 47.6761 7.10205C48.8763 7.10205 49.781 7.36036 50.3911 7.87698C51.0745 8.46103 51.4173 9.29613 51.4173 10.3833ZM50.259 10.4134C50.259 9.62188 50.0472 9.015 49.6237 8.59174C49.2002 8.16953 48.5818 7.9579 47.7673 7.9579C47.4213 7.9579 47.1268 7.98072 46.8825 8.02844V13.1002C47.0177 13.121 47.2651 13.1303 47.6247 13.1303C48.4654 13.1303 49.1143 12.899 49.5713 12.4363C50.0284 11.9736 50.259 11.2993 50.259 10.4134Z" fill="white"/>
  <path d="M57.559 11.4497C57.559 12.2018 57.342 12.818 56.908 13.3014C56.453 13.7983 55.8503 14.0462 55.0976 14.0462C54.3722 14.0462 53.7946 13.8087 53.3638 13.3315C52.934 12.8553 52.7191 12.2547 52.7191 11.5306C52.7191 10.7733 52.9403 10.1519 53.3848 9.66949C53.8292 9.1871 54.4267 8.94539 55.1794 8.94539C55.9048 8.94539 56.4876 9.18295 56.9289 9.65911C57.3483 10.1218 57.559 10.7193 57.559 11.4497ZM56.4195 11.4849C56.4195 11.0337 56.321 10.6467 56.1249 10.3241C55.8943 9.93402 55.5662 9.73899 55.1396 9.73899C54.6982 9.73899 54.3628 9.93402 54.1322 10.3241C53.9351 10.6467 53.8376 11.0399 53.8376 11.5046C53.8376 11.9559 53.9362 12.3428 54.1322 12.6655C54.3701 13.0555 54.7014 13.2506 55.1291 13.2506C55.5484 13.2506 55.8775 13.0524 56.1144 12.6551C56.3178 12.3262 56.4195 11.9362 56.4195 11.4849Z" fill="white"/>
  <path d="M65.7945 9.04494L64.2483 13.9352H63.242L62.6015 11.8117C62.439 11.2816 62.307 10.7546 62.2042 10.2317H62.1843C62.0889 10.7691 61.9568 11.295 61.787 11.8117L61.1067 13.9352H60.0888L58.6349 9.04494H59.7639L60.3226 11.3697C60.4578 11.9195 60.5689 12.4434 60.658 12.9393H60.678C60.7597 12.5306 60.8949 12.0098 61.0857 11.3801L61.787 9.04597H62.6822L63.3542 11.3303C63.5166 11.8874 63.6487 12.4237 63.7504 12.9403H63.7808C63.8552 12.4372 63.9674 11.9009 64.1163 11.3303L64.7159 9.04597H65.7945V9.04494Z" fill="white"/>
  <path d="M71.4894 13.9352H70.3908V11.1343C70.3908 10.2712 70.0595 9.8396 69.3949 9.8396C69.0689 9.8396 68.8058 9.95787 68.6014 10.1954C68.3991 10.433 68.2964 10.7131 68.2964 11.0336V13.9342H67.1978V10.4423C67.1978 10.0128 67.1842 9.54706 67.158 9.04289H68.1234L68.1748 9.80745H68.2052C68.3331 9.56988 68.5238 9.37382 68.7744 9.21717C69.0721 9.03459 69.4054 8.94226 69.7702 8.94226C70.2315 8.94226 70.6151 9.08957 70.9202 9.38523C71.2996 9.74728 71.4894 10.2878 71.4894 11.0056V13.9352Z" fill="white"/>
  <path d="M74.5188 13.9352H73.4213V6.80106H74.5188V13.9352Z" fill="white"/>
  <path d="M80.9868 11.4497C80.9868 12.2018 80.7698 12.818 80.3358 13.3014C79.8809 13.7983 79.2771 14.0462 78.5255 14.0462C77.799 14.0462 77.2214 13.8087 76.7917 13.3315C76.3619 12.8553 76.147 12.2547 76.147 11.5306C76.147 10.7733 76.3682 10.1519 76.8126 9.66949C77.2571 9.1871 77.8546 8.94539 78.6062 8.94539C79.3326 8.94539 79.9144 9.18295 80.3568 9.65911C80.7761 10.1218 80.9868 10.7193 80.9868 11.4497ZM79.8463 11.4849C79.8463 11.0337 79.7478 10.6467 79.5517 10.3241C79.3222 9.93402 78.993 9.73899 78.5674 9.73899C78.125 9.73899 77.7896 9.93402 77.56 10.3241C77.363 10.6467 77.2655 11.0399 77.2655 11.5046C77.2655 11.9559 77.364 12.3428 77.56 12.6655C77.798 13.0555 78.1292 13.2506 78.5569 13.2506C78.9762 13.2506 79.3043 13.0524 79.5413 12.6551C79.7457 12.3262 79.8463 11.9362 79.8463 11.4849Z" fill="white"/>
  <path d="M86.3036 13.9352H85.3172L85.2354 13.3719H85.205C84.8675 13.8211 84.3863 14.0462 83.7616 14.0462C83.2951 14.0462 82.9177 13.8979 82.6336 13.6033C82.3758 13.3356 82.2468 13.0026 82.2468 12.6074C82.2468 12.0098 82.4984 11.5544 83.0047 11.2391C83.51 10.9237 84.2207 10.7691 85.1358 10.7764V10.6851C85.1358 10.0409 84.7941 9.71928 84.1096 9.71928C83.6221 9.71928 83.1924 9.84066 82.8213 10.0813L82.598 9.36761C83.0571 9.08647 83.6242 8.94539 84.293 8.94539C85.5845 8.94539 86.2323 9.61969 86.2323 10.9683V12.7692C86.2323 13.2578 86.2564 13.6468 86.3036 13.9352ZM85.1631 12.2547V11.5005C83.9513 11.4797 83.3454 11.8086 83.3454 12.486C83.3454 12.7412 83.4146 12.9321 83.5561 13.0597C83.6976 13.1873 83.8779 13.2506 84.0928 13.2506C84.3339 13.2506 84.5593 13.1748 84.7648 13.0244C84.9713 12.873 85.0981 12.681 85.1453 12.4455C85.1568 12.3926 85.1631 12.3283 85.1631 12.2547Z" fill="white"/>
  <path d="M92.546 13.9352H91.5712L91.5198 13.1499H91.4894C91.1781 13.7474 90.6476 14.0462 89.9023 14.0462C89.3069 14.0462 88.8111 13.8149 88.418 13.3522C88.0249 12.8895 87.8289 12.2889 87.8289 11.5513C87.8289 10.7597 88.0417 10.1186 88.4693 9.62898C88.8834 9.17253 89.3908 8.94431 89.9946 8.94431C90.6581 8.94431 91.1225 9.16527 91.3867 9.60824H91.4076V6.80106H92.5073V12.6177C92.5073 13.0939 92.5198 13.5327 92.546 13.9352ZM91.4076 11.8729V11.0575C91.4076 10.9164 91.3971 10.8023 91.3772 10.7151C91.3154 10.4537 91.1822 10.2338 90.9799 10.0564C90.7755 9.879 90.5292 9.78978 90.2451 9.78978C89.8352 9.78978 89.5145 9.95058 89.2786 10.2732C89.0448 10.5958 88.9264 11.0077 88.9264 11.5108C88.9264 11.9942 89.0385 12.3864 89.2639 12.6883C89.5019 13.0098 89.8226 13.1706 90.2241 13.1706C90.5847 13.1706 90.873 13.0368 91.0921 12.7681C91.3038 12.5202 91.4076 12.2214 91.4076 11.8729Z" fill="white"/>
  <path d="M101.942 11.4497C101.942 12.2018 101.725 12.818 101.291 13.3014C100.836 13.7983 100.234 14.0462 99.4803 14.0462C98.756 14.0462 98.1784 13.8087 97.7465 13.3315C97.3167 12.8553 97.1018 12.2547 97.1018 11.5306C97.1018 10.7733 97.323 10.1519 97.7675 9.66949C98.2119 9.1871 98.8094 8.94539 99.5631 8.94539C100.287 8.94539 100.871 9.18295 101.312 9.65911C101.731 10.1218 101.942 10.7193 101.942 11.4497ZM100.803 11.4849C100.803 11.0337 100.705 10.6467 100.509 10.3241C100.277 9.93402 99.9499 9.73899 99.5223 9.73899C99.082 9.73899 98.7465 9.93402 98.5149 10.3241C98.3178 10.6467 98.2203 11.0399 98.2203 11.5046C98.2203 11.9559 98.3188 12.3428 98.5149 12.6655C98.7528 13.0555 99.0841 13.2506 99.5118 13.2506C99.9311 13.2506 100.261 13.0524 100.498 12.6551C100.7 12.3262 100.803 11.9362 100.803 11.4849Z" fill="white"/>
  <path d="M107.849 13.9352H106.751V11.1343C106.751 10.2712 106.42 9.8396 105.754 9.8396C105.428 9.8396 105.165 9.95787 104.962 10.1954C104.758 10.433 104.657 10.7131 104.657 11.0336V13.9342H103.557V10.4423C103.557 10.0128 103.544 9.54706 103.518 9.04289H104.483L104.534 9.80745H104.564C104.693 9.56988 104.884 9.37382 105.134 9.21717C105.432 9.03459 105.765 8.94226 106.13 8.94226C106.591 8.94226 106.974 9.08957 107.279 9.38523C107.66 9.74728 107.849 10.2878 107.849 11.0056V13.9352Z" fill="white"/>
  <path d="M115.242 9.85932H114.032V12.2349C114.032 12.8387 114.247 13.1406 114.673 13.1406C114.87 13.1406 115.033 13.124 115.162 13.0898L115.19 13.9145C114.973 13.9954 114.688 14.0359 114.337 14.0359C113.903 14.0359 113.566 13.9051 113.321 13.6437C113.076 13.3823 112.954 12.9424 112.954 12.3252V9.85932H112.232V9.04497H112.954V8.14866L114.031 7.82707V9.04393H115.241V9.85932H115.242Z" fill="white"/>
  <path d="M121.058 13.9352H119.958V11.155C119.958 10.2784 119.627 9.83957 118.963 9.83957C118.454 9.83957 118.106 10.0937 117.915 10.6021C117.882 10.7089 117.864 10.8396 117.864 10.9932V13.9342H116.766V6.80106H117.864V9.74829H117.884C118.23 9.21195 118.726 8.94431 119.369 8.94431C119.824 8.94431 120.2 9.09162 120.499 9.38727C120.871 9.75555 121.058 10.3033 121.058 11.0274V13.9352Z" fill="white"/>
  <path d="M127.057 11.2588C127.057 11.4538 127.042 11.6178 127.016 11.7516H123.722C123.736 12.235 123.893 12.6033 124.198 12.8585C124.477 13.0867 124.837 13.2008 125.277 13.2008C125.765 13.2008 126.209 13.124 126.609 12.9695L126.781 13.7247C126.313 13.9259 125.761 14.0266 125.123 14.0266C124.358 14.0266 123.755 13.8035 123.319 13.3575C122.881 12.9114 122.664 12.3128 122.664 11.5617C122.664 10.8241 122.866 10.21 123.274 9.72036C123.7 9.19752 124.275 8.9361 125.001 8.9361C125.712 8.9361 126.252 9.19752 126.617 9.72036C126.911 10.1353 127.057 10.6488 127.057 11.2588ZM126.009 10.9777C126.017 10.6551 125.945 10.377 125.796 10.1426C125.605 9.8407 125.315 9.68924 124.922 9.68924C124.563 9.68924 124.271 9.83655 124.048 10.1322C123.865 10.3677 123.757 10.6488 123.722 10.9777H126.009Z" fill="white"/>
</svg>