<svg width="83" height="82" viewBox="0 0 83 82" fill="none" xmlns="http://www.w3.org/2000/svg">
<rect width="82.057" height="81.51" rx="8.36" fill="#F0F3FC"/>
<path d="M7.69935 11.6098C7.55044 11.6098 7.42896 11.4883 7.42896 11.3394V8.14567C7.42896 7.68719 7.80123 7.31491 8.25972 7.31491H11.4574C11.6063 7.31491 11.7278 7.43639 11.7278 7.5853C11.7278 7.73421 11.6063 7.85569 11.4574 7.85569H8.25972C8.09905 7.85569 7.96974 7.98501 7.96974 8.14567V11.3394C7.96974 11.4883 7.84826 11.6098 7.69935 11.6098Z" fill="#0012AE"/>
<path d="M74.272 11.6097C74.1231 11.6097 74.0017 11.4883 74.0017 11.3394V8.14563C74.0017 7.98496 73.8723 7.85564 73.7117 7.85564H70.5179C70.369 7.85564 70.2476 7.73417 70.2476 7.58526C70.2476 7.43635 70.369 7.31487 70.5179 7.31487H73.7117C74.1702 7.31487 74.5424 7.68714 74.5424 8.14563V11.3394C74.5424 11.4883 74.421 11.6097 74.272 11.6097Z" fill="#0012AE"/>
<path d="M74.2721 70.0148C74.421 70.0148 74.5425 70.1363 74.5425 70.2852L74.5425 73.4789C74.5425 73.9374 74.1702 74.3097 73.7117 74.3097L70.5141 74.3097C70.3652 74.3097 70.2437 74.1882 70.2437 74.0393C70.2437 73.8904 70.3652 73.7689 70.5141 73.7689L73.7117 73.7689C73.8724 73.7689 74.0017 73.6396 74.0017 73.4789L74.0017 70.2852C74.0017 70.1363 74.1232 70.0148 74.2721 70.0148Z" fill="#0012AE"/>
<path d="M7.69915 70.0148C7.84806 70.0148 7.96954 70.1363 7.96954 70.2852L7.96954 73.4789C7.96954 73.6396 8.09885 73.7689 8.25952 73.7689L11.4532 73.7689C11.6022 73.7689 11.7236 73.8904 11.7236 74.0393C11.7236 74.1882 11.6022 74.3097 11.4532 74.3097L8.25952 74.3097C7.80103 74.3097 7.42876 73.9374 7.42876 73.4789L7.42876 70.2852C7.42876 70.1363 7.55024 70.0148 7.69915 70.0148Z" fill="#0012AE"/>
<path d="M52.5957 16.0992C48.2629 15.4128 44.197 18.368 43.5106 22.7008L39.807 46.0903C39.1206 50.4231 42.0759 54.489 46.4087 55.1753C50.7415 55.8617 54.8074 52.9065 55.4937 48.5737L59.1974 25.1842C59.8837 20.8514 56.9285 16.7856 52.5957 16.0992Z" fill="#0012AE"/>
<path d="M52.8819 23.9588C53.2061 24.0112 53.4206 24.3258 53.3681 24.6643L53.2204 25.6033C53.1679 25.9417 52.8629 26.1753 52.5387 26.1228C52.2146 26.0704 52.0001 25.7558 52.0526 25.4174L52.2003 24.4784C52.2528 24.1399 52.5578 23.9064 52.8819 23.9588Z" fill="#8CC4FF"/>
<path d="M49.5216 23.4199C49.8743 23.4771 50.1127 23.7965 50.0602 24.1349L49.9125 25.0691C49.86 25.4076 49.5311 25.6364 49.1784 25.5839C48.8257 25.5315 48.5874 25.2074 48.6398 24.8689L48.7876 23.9347C48.84 23.5915 49.1689 23.3627 49.5216 23.4199Z" fill="#8CC4FF"/>
<path d="M52.0526 27.9379L48.983 27.3421C48.983 27.3421 48.5397 27.1991 48.7685 27.5947C48.9591 27.9284 49.0306 28.5719 50.0125 28.7912C51.2328 29.0581 51.7857 28.2811 51.9954 28.2239C52.2052 28.1667 52.2052 27.9665 52.0383 27.9379" fill="#FF5C5C"/>
<rect x="31.3638" y="34.5229" width="2.27274" height="20.711" rx="1.13637" transform="rotate(-10.3128 31.3638 34.5229)" fill="#1A8AFF"/>
<path d="M30.0733 36.0915C29.2488 36.2563 28.3925 36.0868 27.693 35.6203L23.6124 32.8991C22.9128 32.4326 22.4272 31.7073 22.2624 30.8827L21.3012 26.0731C21.1364 25.2485 21.3059 24.3923 21.7724 23.6927L24.4936 19.6122C24.9601 18.9126 25.6855 18.427 26.51 18.2622L31.3196 17.301C32.1441 17.1362 33.0004 17.3057 33.7 17.7722L37.7805 20.4934C38.4801 20.9599 38.9657 21.6852 39.1305 22.5098L40.0918 27.3194C40.2566 28.1439 40.087 29.0002 39.6205 29.6998L36.8993 33.7803C36.4328 34.4799 35.7075 34.9655 34.8829 35.1303L30.0733 36.0915Z" fill="#FF5C5C" stroke="#FF5C5C" stroke-width="0.573851" stroke-miterlimit="10" stroke-linecap="round" stroke-linejoin="round"/>
<path d="M33.3284 23.3119C33.0561 23.1603 32.7307 23.1366 32.4357 23.2472C32.3645 23.2736 32.2978 23.3083 32.2364 23.349C32.0278 22.9315 31.5582 22.6863 31.0791 22.7821C30.8936 22.8191 30.7292 22.9028 30.5955 23.0187C30.3525 22.7668 29.9904 22.6389 29.6224 22.7125C29.143 22.8083 28.8037 23.2148 28.7716 23.6808C28.6989 23.6668 28.6244 23.6604 28.5484 23.663C28.2337 23.6747 27.9423 23.8213 27.7491 24.0658C27.5556 24.3105 27.4798 24.6261 27.541 24.932L28.1439 27.949L27.7504 27.7055C27.2534 27.3991 26.5992 27.5529 26.2919 28.0494C25.984 28.5466 26.1377 29.202 26.6303 29.5079L27.993 30.3812C29.0008 31.0271 30.2018 31.2535 31.3752 31.0189L31.9798 30.8981C33.7009 30.5541 34.8216 28.8736 34.4776 27.1525L33.8538 24.0314C33.7928 23.7259 33.6011 23.4637 33.3284 23.3119ZM33.7837 27.2919C34.0513 28.6308 33.1798 29.9376 31.8409 30.2052L31.2363 30.326C30.2436 30.5244 29.2271 30.3329 28.3745 29.7866L27.0076 28.9105C26.8416 28.8074 26.7903 28.5886 26.8931 28.4223C26.9957 28.2571 27.2134 28.206 27.3785 28.308L28.4642 28.9794C28.5844 29.0535 28.7368 29.049 28.8521 28.969C28.9677 28.8885 29.0249 28.7472 28.9973 28.6092L28.2348 24.7937C28.2144 24.6918 28.2395 24.5865 28.3044 24.505C28.3701 24.4222 28.4655 24.3746 28.5743 24.3702C28.7398 24.3645 28.899 24.5059 28.9362 24.6921L29.2754 26.3893C29.3137 26.5808 29.5002 26.7051 29.6916 26.6669C29.8831 26.6286 30.0074 26.4421 29.9692 26.2507L29.4839 23.8227C29.4457 23.6315 29.5703 23.4447 29.7614 23.4065C29.9526 23.3683 30.1394 23.4929 30.1776 23.684L30.6629 26.112C30.7011 26.3035 30.8876 26.4278 31.0791 26.3896C31.2705 26.3513 31.3949 26.1649 31.3566 25.9734L30.9407 23.8922C30.9025 23.7011 31.0271 23.5142 31.2182 23.4761C31.4093 23.4379 31.5962 23.5625 31.6344 23.7536L32.0503 25.8347C32.0886 26.0262 32.275 26.1505 32.4665 26.1123C32.658 26.074 32.7823 25.8876 32.744 25.6961L32.4742 24.3458C32.4369 24.1592 32.5292 23.9676 32.6846 23.9095C32.7864 23.8722 32.893 23.8786 32.9855 23.9301C33.0764 23.9805 33.1404 24.068 33.1608 24.1699L33.7847 27.2917L33.7837 27.2919Z" fill="white"/>
<rect x="22.8893" y="48.933" width="39.2885" height="11.3629" rx="5.68143" stroke="#0012AE" stroke-width="1.15554"/>
<circle cx="32.9041" cy="60.8737" r="3.75552" fill="white" stroke="#0012AE" stroke-width="1.15554"/>
<circle cx="52.1629" cy="60.8737" r="3.75552" fill="white" stroke="#0012AE" stroke-width="1.15554"/>
</svg>
