<svg width="83" height="82" viewBox="0 0 83 82" fill="none" xmlns="http://www.w3.org/2000/svg">
<rect width="82.057" height="81.51" rx="8.36" fill="#F0F3FC"/>
<path d="M7.64173 11.6098C7.49282 11.6098 7.37134 11.4883 7.37134 11.3394V8.14567C7.37134 7.68719 7.74361 7.31491 8.2021 7.31491H11.3997C11.5487 7.31491 11.6701 7.43639 11.6701 7.5853C11.6701 7.73421 11.5487 7.85569 11.3997 7.85569H8.2021C8.04143 7.85569 7.91212 7.98501 7.91212 8.14567V11.3394C7.91212 11.4883 7.79064 11.6098 7.64173 11.6098Z" fill="#0012AE"/>
<path d="M74.2149 11.6097C74.066 11.6097 73.9445 11.4883 73.9445 11.3394V8.14563C73.9445 7.98496 73.8152 7.85564 73.6545 7.85564H70.4608C70.3119 7.85564 70.1904 7.73417 70.1904 7.58526C70.1904 7.43635 70.3119 7.31487 70.4608 7.31487H73.6545C74.113 7.31487 74.4853 7.68714 74.4853 8.14563V11.3394C74.4853 11.4883 74.3638 11.6097 74.2149 11.6097Z" fill="#0012AE"/>
<path d="M74.2147 70.0148C74.3636 70.0148 74.4851 70.1363 74.4851 70.2852L74.4851 73.4789C74.4851 73.9374 74.1128 74.3097 73.6543 74.3097L70.4567 74.3097C70.3078 74.3097 70.1863 74.1882 70.1863 74.0393C70.1863 73.8904 70.3078 73.7689 70.4567 73.7689L73.6543 73.7689C73.815 73.7689 73.9443 73.6396 73.9443 73.4789L73.9443 70.2852C73.9443 70.1363 74.0658 70.0148 74.2147 70.0148Z" fill="#0012AE"/>
<path d="M7.64178 70.0148C7.79069 70.0148 7.91217 70.1363 7.91217 70.2852L7.91217 73.4789C7.91217 73.6396 8.04148 73.7689 8.20214 73.7689L11.3959 73.7689C11.5448 73.7689 11.6663 73.8904 11.6663 74.0393C11.6663 74.1882 11.5448 74.3097 11.3959 74.3097L8.20214 74.3097C7.74366 74.3097 7.37138 73.9374 7.37138 73.4789L7.37138 70.2852C7.37138 70.1363 7.49286 70.0148 7.64178 70.0148Z" fill="#0012AE"/>
<path d="M40.7841 17.218C36.3975 17.2656 32.8829 20.8589 32.9305 25.2455L33.189 48.925C33.2366 53.3115 36.83 56.8261 41.2165 56.7785C45.6031 56.731 49.1177 53.1376 49.0701 48.751L48.8115 25.0716C48.7639 20.685 45.1706 17.1704 40.7841 17.218Z" fill="#FF5C5C"/>
<path d="M38.7934 25.0614C38.4646 25.0804 38.2119 25.3712 38.231 25.7144L38.2787 26.6629C38.2977 27.0061 38.5789 27.2683 38.9078 27.254C39.2367 27.2349 39.4894 26.9441 39.4703 26.601L39.4226 25.6524C39.4036 25.3045 39.1223 25.0423 38.7934 25.0614Z" fill="#0012AE"/>
<path d="M42.7877 24.8988C42.4779 24.9131 42.2396 25.2039 42.2586 25.5471L42.3063 26.4956C42.3254 26.8388 42.5923 27.101 42.9021 27.0867C43.2119 27.0724 43.4503 26.7816 43.4312 26.4384L43.3835 25.4899C43.3692 25.1467 43.1023 24.8798 42.7877 24.8988Z" fill="#0012AE"/>
<path d="M39.3675 28.3356H42.4038C42.4038 28.3356 42.8233 28.3356 42.5134 28.6264C42.2417 28.8838 42.1321 29.4987 41.155 29.5225C39.9443 29.5511 39.5582 28.7074 39.3723 28.6169C39.1864 28.5263 39.2198 28.3356 39.3866 28.3356" fill="white"/>
<path d="M57.358 28.252C55.1465 30.4609 51.2084 34.2716 46.3139 37.7787M27.8333 48.3706C29.5581 47.7139 33.0077 46.4003 35.7183 44.1832" stroke="#1A8AFF" stroke-width="6.60313" stroke-linecap="round"/>
<path d="M57.3594 28.2516C55.148 30.4605 51.3257 33.5244 48.2409 36.2659M27.8347 48.3703C29.5595 47.7135 33.0091 46.4 35.7197 44.1829" stroke="white" stroke-width="0.825391" stroke-linecap="round" stroke-dasharray="3.3 3.3"/>
<path d="M40.012 38.4212L42.994 36.3674L46.1952 41.0156L43.2131 43.0693C42.5264 43.5423 41.5862 43.369 41.1133 42.6822L39.6249 40.5211C39.152 39.8343 39.3253 38.8941 40.012 38.4212Z" fill="white"/>
<path d="M42.6877 40.9184L41.8147 39.6507" stroke="#1A8AFF" stroke-width="1.40921" stroke-miterlimit="10" stroke-linecap="round" stroke-linejoin="round"/>
<path d="M34.7451 44.2263L35.4833 45.5157C35.7325 45.9508 36.2872 46.1016 36.7223 45.8524C37.1575 45.6033 37.3083 45.0485 37.0591 44.6134L36.3209 43.324C36.0717 42.8889 35.517 42.7381 35.0819 42.9873C34.6467 43.2364 34.4959 43.7912 34.7451 44.2263Z" fill="white"/>
<rect x="-0.207553" y="1.14869" width="7.59044" height="5.28012" rx="1.65078" transform="matrix(0.570104 0.821575 -0.821564 0.570112 47.3818 32.2696)" fill="#8CC4FF" stroke="#8CC4FF" stroke-width="1.65078"/>
<rect x="-0.276836" y="1.13398" width="7.59044" height="5.28013" rx="1.65078" transform="matrix(0.519228 0.854638 -0.854628 0.519237 37.6954 38.8771)" fill="#8CC4FF" stroke="#8CC4FF" stroke-width="1.65078"/>
<rect x="21.5778" y="48.9331" width="39.2885" height="11.3629" rx="5.68143" stroke="#0012AE" stroke-width="1.15554"/>
<circle cx="31.5926" cy="60.8737" r="3.75552" fill="white" stroke="#0012AE" stroke-width="1.15554"/>
<circle cx="50.8514" cy="60.8737" r="3.75552" fill="white" stroke="#0012AE" stroke-width="1.15554"/>
</svg>
