<svg width="63" height="77" viewBox="0 0 63 77" fill="none" xmlns="http://www.w3.org/2000/svg">
<path d="M30.7176 1.89075C23.907 1.96464 18.4501 7.54381 18.524 14.3545L18.9254 51.1199C18.9993 57.9306 24.5784 63.3875 31.3891 63.3136C38.1997 63.2397 43.6566 57.6606 43.5827 50.8499L43.1813 14.0845C43.1074 7.27376 37.5283 1.81686 30.7176 1.89075Z" fill="#FF5C5C"/>
<path d="M27.627 14.0689C27.1164 14.0985 26.7242 14.5499 26.7538 15.0828L26.8278 16.5555C26.8574 17.0884 27.294 17.4954 27.8047 17.4732C28.3153 17.4436 28.7075 16.9922 28.6779 16.4593L28.6039 14.9866C28.5743 14.4463 28.1377 14.0393 27.627 14.0689Z" fill="#0012AE"/>
<path d="M33.8285 13.8164C33.3475 13.8386 32.9774 14.2901 33.007 14.8229L33.081 16.2957C33.1106 16.8285 33.5251 17.2355 34.0061 17.2133C34.4872 17.1911 34.8572 16.7397 34.8276 16.2069L34.7536 14.7341C34.7314 14.2013 34.3169 13.7868 33.8285 13.8164Z" fill="#0012AE"/>
<path d="M28.5184 19.1523H33.2326C33.2326 19.1523 33.8838 19.1523 33.4028 19.6038C32.9809 20.0034 32.8107 20.9581 31.2936 20.9951C29.4138 21.0395 28.8144 19.7296 28.5258 19.589C28.2371 19.4484 28.2889 19.1523 28.548 19.1523" fill="white"/>
<path d="M56.4509 19.0227C53.0173 22.4523 46.9028 28.369 39.3035 33.8142M10.61 50.2595C13.2879 49.2398 18.6439 47.2003 22.8525 43.758" stroke="#1A8AFF" stroke-width="10.2522" stroke-linecap="round"/>
<path d="M56.4529 19.0222C53.0193 22.4518 47.0847 27.2089 42.2952 31.4654M10.6119 50.259C13.2899 49.2393 18.6459 47.1998 22.8544 43.7575" stroke="white" stroke-width="1.28153" stroke-linecap="round" stroke-dasharray="5.13 5.13"/>
<path d="M29.5188 34.8116L34.1488 31.623L39.119 38.8398L34.4889 42.0285C33.4226 42.7629 31.9629 42.4938 31.2286 41.4275L28.9178 38.0721C28.1835 37.0057 28.4526 35.546 29.5188 34.8116Z" fill="white"/>
<path d="M33.6731 38.6887L32.3176 36.7205" stroke="#1A8AFF" stroke-width="2.18798" stroke-miterlimit="10" stroke-linecap="round" stroke-linejoin="round"/>
<path d="M21.3412 43.8246L22.4874 45.8265C22.8743 46.5021 23.7356 46.7362 24.4112 46.3494C25.0868 45.9625 25.3209 45.1012 24.9341 44.4256L23.7879 42.4237C23.4011 41.7481 22.5398 41.514 21.8641 41.9008C21.1885 42.2877 20.9544 43.149 21.3412 43.8246Z" fill="white"/>
<rect x="-0.322253" y="1.78348" width="11.7851" height="8.19807" rx="2.56305" transform="matrix(0.570104 0.821575 -0.821564 0.570112 40.9617 25.2605)" fill="#8CC4FF" stroke="#8CC4FF" stroke-width="2.56305"/>
<rect x="-0.429824" y="1.76066" width="11.7851" height="8.19808" rx="2.56305" transform="matrix(0.519228 0.854638 -0.854628 0.519237 25.9223 35.5195)" fill="#8CC4FF" stroke="#8CC4FF" stroke-width="2.56305"/>
<rect x="0.897066" y="51.1329" width="61.0005" height="17.6423" rx="8.82115" stroke="#0012AE" stroke-width="1.79413"/>
<circle cx="16.4463" cy="69.6723" r="5.83093" fill="white" stroke="#0012AE" stroke-width="1.79413"/>
<circle cx="46.3481" cy="69.6723" r="5.83093" fill="white" stroke="#0012AE" stroke-width="1.79413"/>
</svg>
