<svg xmlns="http://www.w3.org/2000/svg" width="55" height="35" viewBox="0 0 55 35" fill="none">
  <g clip-path="url(#clip0_3009_14748)">
    <path d="M7.3917 0.263085C2.69291 1.0037 -0.511988 5.39083 0.232375 10.066L4.24883 35.3036C4.9932 39.9787 9.40251 43.1675 14.1013 42.4269C18.8001 41.6863 22.005 37.2991 21.2606 32.624L17.2493 7.38639C16.505 2.71124 12.0905 -0.477533 7.3917 0.263085Z" fill="#8CC4FF"/>
    <path d="M47.0644 0.263085C42.3656 -0.477533 37.9563 2.71124 37.212 7.38639L33.1955 32.624C32.4511 37.2991 35.656 41.6863 40.3548 42.4269C45.0536 43.1675 49.4629 39.9787 50.2073 35.3036L54.2237 10.066C54.9681 5.39083 51.7632 1.0037 47.0644 0.263085Z" fill="#0012AE"/>
    <path d="M27.2279 7.46283C22.7757 7.46283 19.1702 12.0078 19.1702 17.618L19.1702 33.1145C19.1702 38.7195 22.7757 43.2645 27.2279 43.2645C31.68 43.2645 35.2855 38.7195 35.2855 33.1145V17.6128C35.2855 12.0078 31.68 7.46283 27.2279 7.46283Z" fill="#FF5C5C"/>
    <path d="M49.3925 9.66182C49.7492 9.71457 49.9853 10.0311 49.9276 10.3715L49.765 11.3163C49.7073 11.6567 49.3716 11.8917 49.0149 11.839C48.6582 11.7862 48.4222 11.4697 48.4799 11.1292L48.6425 10.1845C48.7002 9.84405 49.0359 9.60907 49.3925 9.66182Z" fill="#8CC4FF"/>
    <path d="M45.7161 8.9327C46.0762 8.9902 46.3195 9.31127 46.266 9.65151L46.1151 10.5908C46.0616 10.931 45.7258 11.161 45.3657 11.1083C45.0055 11.0556 44.7622 10.7297 44.8157 10.3895L44.9666 9.45024C45.0201 9.10521 45.3559 8.87519 45.7161 8.9327Z" fill="#8CC4FF"/>
    <path d="M24.9629 14.0394C24.5747 14.0585 24.2765 14.3489 24.299 14.6918L24.3553 15.6394C24.3778 15.9822 24.7097 16.2441 25.0979 16.2298C25.486 16.2108 25.7842 15.9203 25.7617 15.5775L25.7054 14.6299C25.6829 14.2823 25.351 14.0204 24.9629 14.0394Z" fill="#0012AE"/>
    <path d="M29.3543 13.309C28.9679 13.3281 28.6707 13.7162 28.6944 14.1744L28.7539 15.4406C28.7777 15.8987 29.1106 16.2487 29.497 16.2296C29.8834 16.2105 30.1806 15.8224 30.1568 15.3642L30.0974 14.098C30.0795 13.6399 29.7466 13.2836 29.3543 13.309Z" fill="#0012AE"/>
    <path d="M4.3539 8.93269C3.99324 8.99013 3.74355 9.31559 3.79442 9.65542L3.93775 10.5983C3.98862 10.9381 4.32616 11.1679 4.68682 11.1056C5.04748 11.0482 5.29716 10.7227 5.2463 10.3829L5.10296 9.44482C5.0521 9.105 4.71456 8.87526 4.3539 8.93269Z" fill="white"/>
    <path d="M8.74843 8.20352C8.38777 8.26092 8.13809 8.58619 8.18895 8.9258L8.33229 9.8681C8.38315 10.2077 8.72069 10.4373 9.08134 10.3751C9.442 10.3177 9.69169 9.99246 9.64083 9.65285L9.49749 8.71533C9.44663 8.37094 9.10909 8.14134 8.74843 8.20352Z" fill="white"/>
    <path d="M48.3587 13.9009L45.1052 13.3318C45.1052 13.3318 44.6354 13.1952 44.8779 13.5731C45.0799 13.8918 45.1557 14.5064 46.1964 14.7159C47.4897 14.9708 48.0758 14.2287 48.298 14.1741C48.5203 14.1194 48.5203 13.9282 48.3435 13.9009" fill="#FF5C5C"/>
    <path d="M6.08558 12.6812C6.08558 12.6812 10.1481 11.1907 9.59613 12.1935C9.40729 12.5369 9.36855 13.5741 8.30812 13.9381C6.99106 14.3845 6.37611 13.2032 6.14853 13.1207C5.92095 13.0383 5.95 12.7636 6.11948 12.6743" fill="#0012AE"/>
    <path d="M6.08558 12.6812C6.08558 12.6812 10.1481 11.1907 9.59613 12.1935C9.40729 12.5369 9.36855 13.5741 8.30812 13.9381C6.99106 14.3845 6.37611 13.2032 6.14853 13.1207C5.92095 13.0383 5.95 12.7636 6.11948 12.6743" stroke="#0012AE" stroke-width="0.0436567"/>
    <path d="M26.6004 16.961H29.2318C29.2318 16.961 29.5953 16.961 29.3268 17.3188C29.0914 17.6355 28.9963 18.3921 28.1495 18.4214C27.1003 18.4566 26.7657 17.4185 26.6046 17.307C26.4435 17.1956 26.4724 16.961 26.617 16.961" fill="white"/>
  </g>
  <defs>
    <clipPath id="clip0_3009_14748">
      <rect width="54.375" height="34.375" fill="white" transform="translate(0.125 0.15625)"/>
    </clipPath>
  </defs>
</svg>