<svg xmlns="http://www.w3.org/2000/svg" width="22" height="20" viewBox="0 0 22 20" fill="none">
<path d="M2.52391 9.79994C2.52391 9.23115 2.93148 8.72469 3.64019 8.40523L17.849 2.00828C18.1951 1.85244 18.5326 1.77453 18.8441 1.77453C19.2949 1.77453 19.6921 1.94594 19.9439 2.24904C20.1594 2.51474 20.3671 2.97445 20.1161 3.72244L18.5153 8.5299C18.4633 8.67015 18.4287 8.84079 18.4114 9.02078L9.6456 9.02078C9.16967 9.02078 8.78027 9.3714 8.78027 9.79994C8.78027 10.2285 9.16967 10.5791 9.6456 10.5791L18.4114 10.5791C18.4296 10.7583 18.4642 10.9297 18.5153 11.07L20.1161 15.8774C20.3671 16.6254 20.1594 17.0852 19.9431 17.3501C19.5191 17.8643 18.7143 17.9812 17.849 17.5916L3.63932 11.1947C2.93061 10.8752 2.52391 10.3687 2.52391 9.79994Z" fill="#B6BCC8"/>
</svg>