<svg width="70" height="75" viewBox="0 0 70 75" fill="none" xmlns="http://www.w3.org/2000/svg">
<path d="M9.43051 0.139348C3.33256 1.10536 -0.826664 6.82764 0.139348 12.9256L5.35179 45.8438C6.3178 51.9417 12.0401 56.101 18.138 55.1349C24.236 54.1689 28.3952 48.4467 27.4292 42.3487L22.2235 9.4305C21.2574 3.33255 15.5285 -0.826664 9.43051 0.139348Z" fill="#8CC4FF"/>
<path d="M60.5675 0.139348C54.4695 -0.826664 48.7472 3.33255 47.7812 9.4305L42.5688 42.3487C41.6028 48.4467 45.762 54.1689 51.86 55.1349C57.9579 56.101 63.6802 51.9417 64.6462 45.8438L69.8586 12.9256C70.8246 6.82764 66.6654 1.10536 60.5675 0.139348Z" fill="#0012AE"/>
<path d="M35.0031 9.39526C29.1467 9.39526 24.4038 15.292 24.4038 22.5706V42.6757C24.4038 49.9476 29.1467 55.8443 35.0031 55.8443C40.8596 55.8443 45.6024 49.9476 45.6024 42.6757V22.5639C45.6024 15.292 40.8596 9.39526 35.0031 9.39526Z" fill="#FF5C5C"/>
<path d="M63.6535 12.3287C64.1095 12.4025 64.4112 12.845 64.3375 13.3211L64.1296 14.642C64.0559 15.1181 63.6267 15.4466 63.1708 15.3729C62.7148 15.2991 62.4131 14.8566 62.4869 14.3805L62.6947 13.0596C62.7685 12.5835 63.1976 12.2549 63.6535 12.3287Z" fill="#8CC4FF"/>
<path d="M58.924 11.5692C59.4201 11.6497 59.7554 12.0989 59.6816 12.575L59.4738 13.8892C59.4 14.3653 58.9374 14.6871 58.4412 14.6134C57.945 14.5396 57.6097 14.0836 57.6835 13.6076L57.8914 12.2934C57.9651 11.8106 58.4278 11.4887 58.924 11.5692Z" fill="#8CC4FF"/>
<path d="M32.1304 17.373C31.6678 17.3998 31.3124 17.8088 31.3392 18.2916L31.4062 19.6259C31.4331 20.1087 31.8287 20.4775 32.2913 20.4573C32.754 20.4305 33.1094 20.0215 33.0825 19.5387L33.0155 18.2044C32.9887 17.7149 32.5931 17.3461 32.1304 17.373Z" fill="#0012AE"/>
<path d="M37.7529 17.1449C37.317 17.165 36.9818 17.574 37.0086 18.0568L37.0756 19.3911C37.1025 19.8739 37.4779 20.2427 37.9138 20.2226C38.3496 20.2025 38.6849 19.7935 38.6581 19.3107L38.591 17.9763C38.5709 17.4936 38.1954 17.1181 37.7529 17.1449Z" fill="#0012AE"/>
<path d="M5.90778 10.8854C5.38478 10.9658 5.02269 11.4218 5.09645 11.8979L5.30431 13.2188C5.37806 13.6948 5.86755 14.0167 6.39055 13.9295C6.91356 13.8491 7.27563 13.3931 7.20187 12.917L6.99402 11.6028C6.92026 11.1268 6.43078 10.8049 5.90778 10.8854Z" fill="#FF5C5C"/>
<path d="M11.1932 10.1209C10.6702 10.2014 10.3081 10.6574 10.3818 11.1334L10.5897 12.4543C10.6635 12.9304 11.1529 13.2523 11.6759 13.1651C12.1989 13.0846 12.561 12.6287 12.4873 12.1526L12.2794 10.8384C12.2057 10.3556 11.7162 10.0338 11.1932 10.1209Z" fill="#FF5C5C"/>
<path d="M62.484 17.9292L58.1658 17.0911C58.1658 17.0911 57.5423 16.8899 57.8641 17.4465C58.1323 17.9158 58.2329 18.821 59.6142 19.1295C61.3307 19.5049 62.1085 18.412 62.4035 18.3315C62.6985 18.2511 62.6985 17.9695 62.4639 17.9292" fill="#FF5C5C"/>
<path d="M7.57895 16.198C7.57895 16.198 13.2046 14.743 12.4402 15.7219C12.1787 16.0572 12.1251 17.0697 10.6566 17.425C8.83281 17.8609 7.98126 16.7076 7.66612 16.6271C7.35097 16.5467 7.39121 16.2785 7.62589 16.1913" fill="#0012AE"/>
<path d="M7.57895 16.198C7.57895 16.198 13.2046 14.743 12.4402 15.7219C12.1787 16.0572 12.1251 17.0697 10.6566 17.425C8.83281 17.8609 7.98126 16.7076 7.66612 16.6271C7.35097 16.5467 7.39121 16.2785 7.62589 16.1913" stroke="#0012AE" stroke-width="0.329805"/>
<path d="M33.6539 21.9812H37.9251C37.9251 21.9812 38.5151 21.9812 38.0793 22.3902C37.6971 22.7523 37.5429 23.6173 36.1683 23.6508C34.4652 23.691 33.9221 22.5042 33.6606 22.3768C33.3991 22.2494 33.446 21.9812 33.6807 21.9812" fill="white"/>
<rect x="4.43801" y="49.5862" width="60.3483" height="17.4537" rx="8.72684" stroke="#0012AE" stroke-width="1.77495"/>
<circle cx="19.8206" cy="67.9273" r="5.76859" fill="white" stroke="#0012AE" stroke-width="1.77495"/>
<circle cx="49.4031" cy="67.9273" r="5.76859" fill="white" stroke="#0012AE" stroke-width="1.77495"/>
</svg>
